<svg width="20" height="20" viewBox="0 0 20 20" fill="none" xmlns="http://www.w3.org/2000/svg">
<path fill-rule="evenodd" clip-rule="evenodd" d="M10.0002 0.833313C4.93766 0.833313 0.833496 4.93748 0.833496 9.99998C0.833496 15.0625 4.93766 19.1666 10.0002 19.1666C15.0627 19.1666 19.1668 15.0625 19.1668 9.99998C19.1668 4.93748 15.0627 0.833313 10.0002 0.833313ZM13.9735 8.44998C14.0467 8.36635 14.1024 8.26893 14.1373 8.16345C14.1723 8.05798 14.1858 7.94657 14.1771 7.8358C14.1683 7.72503 14.1375 7.61712 14.0865 7.51842C14.0354 7.41972 13.9651 7.33223 13.8798 7.2611C13.7944 7.18996 13.6957 7.13661 13.5894 7.1042C13.4831 7.07178 13.3714 7.06095 13.2609 7.07234C13.1504 7.08372 13.0432 7.1171 12.9458 7.17051C12.8483 7.22391 12.7626 7.29627 12.6935 7.38331L9.11016 11.6825L7.256 9.82748C7.09883 9.67568 6.88833 9.59169 6.66983 9.59358C6.45133 9.59548 6.24232 9.68312 6.08781 9.83763C5.93331 9.99214 5.84567 10.2011 5.84377 10.4196C5.84187 10.6381 5.92586 10.8486 6.07766 11.0058L8.57766 13.5058C8.65954 13.5876 8.75757 13.6515 8.86551 13.6934C8.97344 13.7352 9.08891 13.7541 9.20455 13.7489C9.3202 13.7436 9.43348 13.7143 9.53717 13.6629C9.64087 13.6114 9.7327 13.5389 9.80683 13.45L13.9735 8.44998Z" fill="white"/>
</svg>
